<!-- Generated by IcoMoon.io -->
<svg version="1.1" xmlns="http://www.w3.org/2000/svg" width="32" height="32" viewBox="0 0 32 32">
<title>google-scholar</title>
<path d="M12.25 3.354l-9.332 8.198h6.018c0.436 3.925 3.576 5.582 6.803 5.843-0.611 1.57-0.349 2.355 0.611 3.401-3.75 0.087-8.983 2.268-8.983 5.843 0.349 3.925 5.494 4.71 8.024 4.71 3.314 0.087 7.064-1.657 7.849-4.71 0.349-3.053-0.872-4.71-2.704-6.192-2.006-1.57-2.442-2.442-1.831-3.489 1.308-1.483 3.052-2.355 3.401-4.448 0.174-1.483-0.174-2.442-0.523-3.75l3.925-3.314-0.087 1.395c-0.262 0.174-0.436 0.523-0.436 0.785v8.983c0.174 1.134 1.919 0.959 2.006 0v-8.983c0-0.262-0.174-0.611-0.436-0.698v-2.18l1.395-1.395zM17.308 15.651c-5.32 0.872-7.588-7.588-3.314-8.634 4.884-0.959 7.239 7.5 3.314 8.634zM16.872 22.018c5.233 1.134 5.32 5.494 0.872 6.803-3.837 0.785-7.151-0.349-7.064-2.616 0-2.18 3.053-4.186 6.192-4.186z"></path>
</svg>
