<!-- Generated by IcoMoon.io -->
<svg version="1.1" xmlns="http://www.w3.org/2000/svg" width="32" height="32" viewBox="0 0 32 32">
<title>ORCID</title>
<path d="M8.831 26.006h-2.648v-18.412h2.648v18.412z"></path>
<path d="M9.244 3.76c0 0.946-0.774 1.736-1.736 1.736s-1.736-0.791-1.736-1.736c0-0.963 0.774-1.736 1.736-1.736s1.736 0.791 1.736 1.736z"></path>
<path d="M12.716 7.593h7.152c6.808 0 9.799 4.865 9.799 9.215 0 4.728-3.696 9.215-9.765 9.215h-7.186v-18.43zM15.364 23.633h4.212c6 0 7.375-4.556 7.375-6.825 0-3.696-2.355-6.825-7.513-6.825h-4.074v13.65z"></path>
</svg>
