<!-- Generated by IcoMoon.io -->
<svg version="1.1" xmlns="http://www.w3.org/2000/svg" width="32" height="32" viewBox="0 0 32 32">
<title>researchgate</title>
<path d="M17.473 28.475c-1.473-0.393-2.259-0.982-3.536-2.554-0.884-1.179-2.554-3.831-3.438-5.206l-0.589-1.080h-2.357v3.34c0.098 4.224 0 4.125 1.866 4.42l0.982 0.098v0.786h-7.858v-0.393c0-0.393 0.098-0.393 0.884-0.589 0.982-0.196 1.375-0.491 1.473-1.375 0.098-0.393 0.098-3.045 0.098-7.76 0-6.876-0.098-7.072-0.295-7.563-0.295-0.491-0.688-0.688-1.768-0.786-0.393-0.098-0.491-0.098-0.491-0.491v-0.393l4.224-0.098c5.402-0.098 6.385 0 7.956 1.080 1.473 0.982 2.161 2.357 1.964 4.224-0.098 2.063-1.67 4.125-3.634 4.911-0.393 0.098-0.688 0.295-0.688 0.295 0 0.196 1.67 2.75 2.75 4.224 1.473 2.063 2.652 3.143 3.536 3.634 0.393 0.196 0.884 0.295 0.982 0.295 0.295 0 0.295 0.098 0.295 0.393s-0.098 0.491-0.196 0.491c-0.491 0.196-1.866 0.196-2.554 0zM11.875 17.768c1.375-0.688 2.161-1.768 2.259-3.438 0.098-1.277-0.196-2.161-0.982-2.947-0.884-0.982-2.456-1.375-4.715-1.179l-0.982 0.098v3.831c0 3.536 0 3.929 0.196 3.929 0.098 0 0.884 0.098 1.768 0 1.375 0 1.67-0.098 2.357-0.393z"></path>
<path d="M22.385 13.25c-2.456-0.393-3.34-1.964-3.143-5.992 0.098-2.063 0.295-2.947 1.080-3.733 0.688-0.688 1.277-0.884 2.456-0.982 1.277-0.098 2.063 0.196 2.849 0.786 0.491 0.393 0.884 0.982 0.884 1.277 0 0.098-0.295 0.196-0.589 0.393l-0.589 0.295-0.295-0.295c-0.491-0.589-0.884-0.884-1.375-1.080-0.982-0.295-1.964 0.196-2.456 1.080-0.295 0.491-0.295 0.589-0.295 2.849 0 2.161 0 2.456 0.295 2.848 0.393 0.688 1.179 1.080 2.063 0.982 1.277-0.098 1.964-0.982 1.964-2.357v-0.688h-1.964v-1.277h3.536v1.473c0 1.179-0.098 1.572-0.295 2.161-0.589 1.473-2.259 2.357-4.125 2.161z"></path>
</svg>
